#!OML:ASF E:/inclinewalkrobotboard/Project1/Captureday1/Session1/subject1.ASF
:FULLY-SPECIFIED
:DEGREES
201
root 0 0 0 76.31806788234465 -27.398495633072233 -45.46212162079553
lowerback -11.188257608311869 7.863016324900174 9.570403022195077
upperback -20.51802262724373 10.074215663133701 2.9605709289625937
thorax -15.457170435144171 3.969842500754864 -1.7117362940991203
lowerneck -7.541930371895713 9.77230821282746 5.410849315610503
upperneck 11.708740612025775 11.68130154079099 7.2883632508734575
head 4.804059887592945 6.267604366821218 2.077073695898349
rclavicle 6.086986149936097E-15 -3.4263737045088124E-15
rhumerus 108.82224160016919 -24.95782106977466 -115.16037457870866
rradius 0.8564570653392884
rwrist 69.59951788874271
rhand 13.68541203629319 -12.575990654333632
rfingers 7.125020000000017
rthumb 38.683540492011254 -38.47556455784412
lclavicle -6.276774241640164E-16 1.5026837567698257E-15
lhumerus -0.23573082081942687 24.86319891245535 1.670714974130135
lradius 9.337785657015338
lwrist -41.44488742271035
lhand 12.127700013544414 36.76225579513924
lfingers 7.125020000000047
lthumb 37.233464641444655 63.84705148432221
rfemur 183.11602123280565 -219.76736905704828 -192.08401539156
rtibia 67.35779549236263
rfoot -22.92395604758198 -9.859390518392376
rtoes 49.84226497125046
lfemur -109.44956253859115 35.770293194041955 -24.12291402963098
ltibia 67.9974145467204
lfoot -38.31431146032291 35.59219026801354
ltoes 38.96234871827819
202
root 0 0 0 76.31730469810219 -27.40191428308392 -45.46095000217889
lowerback -11.188032753375264 7.863090286761144 9.56963703045628
upperback -20.51751619785749 10.074272194373986 2.960075808128878
thorax -15.456838418722832 3.969919609593086 -1.7118331752942506
lowerneck -7.5428265278123545 9.772442564345543 5.410970011444755
upperneck 11.70809513356381 11.681441214588167 7.288486178607753
head 4.803928834920474 6.267697655892371 2.0771450259502466
rclavicle 6.080396113304638E-15 -3.428286189785243E-15
rhumerus 108.78860632982992 -24.95689965311113 -115.16564258179923
rradius 0.8357655165524278
rwrist 69.61779520230223
rhand 13.695227949593377 -12.582078631031203
rfingers 7.125020000000017
rthumb 38.693070956262076 -38.48037008161887
lclavicle -6.543670985575297E-16 1.495529498543689E-15
lhumerus -0.15131635052691728 24.90896643696959 1.6744487486588113
lradius 9.316793331509547
lwrist -41.44910662624402
lhand 12.119803456106789 36.752443735854996
lfingers 7.125020000000047
lthumb 37.22602827390409 63.83964898289953
rfemur 183.10636610870114 -219.74978585215206 -192.07316655955833
rtibia 67.36881058293709
rfoot -22.862543744087134 -9.90345454843152
rtoes 49.860697464158825
lfemur -109.44633952773599 35.7684032160612 -24.12749916484163
ltibia 68.0349520178055
lfoot -38.321607614521696 35.58322115453947
ltoes 38.9502727035084
203
root 0 0 0 76.3161951828103 -27.40780442225563 -45.45917173772152
lowerback -11.187852349955836 7.863136894587576 9.568500906318402
upperback -20.51643132022508 10.074308838682557 2.9591309008848583
thorax -15.455841203586843 3.970004600330971 -1.7122634959812526
lowerneck -7.544518303063372 9.77227104624565 5.411204902400427
upperneck 11.708863452695292 11.681006800136883 7.288294354512823
head 4.804460035632986 6.2675515739782055 2.077117297259681
rclavicle 6.071866116760862E-15 -3.4247366706432217E-15
rhumerus 108.76899671606179 -24.951758187448966 -115.16229097195291
rradius 0.8225766994894848
rwrist 69.63447285644612
rhand 13.708581567100929 -12.590712331384788
rfingers 7.125020000000017
rthumb 38.70586267968257 -38.48693229545093
lclavicle -6.760774872408895E-16 1.4970484510083526E-15
lhumerus -0.11523474396043198 24.95913713665231 1.7025306014515422
lradius 9.292180652476151
lwrist -41.458115889823006
lhand 12.102801034134348 36.73986993057446
lfingers 7.125020000000047
lthumb 37.20993917149657 63.83103298756578
rfemur 183.09848528823198 -219.7402640057462 -192.06670086158027
rtibia 67.37262728112975
rfoot -22.8389433546207 -9.924827058040583
rtoes 49.87172128074745
lfemur -109.44728552548142 35.7648057321386 -24.135577201372456
ltibia 68.07378394676118
lfoot -38.32962749693246 35.57721861018935
ltoes 38.936882268736184
204
root 0 0 0 76.31531724190704 -27.412719034730934 -45.45776177873744
lowerback -11.187813241848161 7.863152808349961 9.56764630536243
upperback -20.51550381431403 10.074321827747575 2.95836070048916
thorax -15.454903785253276 3.9700608567817586 -1.7126643946858557
lowerneck -7.545885375607904 9.772040082113946 5.4114128777032695
upperneck 11.710007403237714 11.68049078945279 7.288060475484921
head 4.805091613118666 6.267361090126367 2.0770637533351826
rclavicle 6.070120004621157E-15 -3.4206813253540313E-15
rhumerus 108.74489965521565 -24.94561292765247 -115.14948841390944
rradius 0.8152780433374787
rwrist 69.64171892607624
rhand 13.72161172827683 -12.598005674463112
rfingers 7.125020000000017
rthumb 38.718287230690294 -38.49200318458904
lclavicle -6.836721225648831E-16 1.500963095321846E-15
lhumerus -0.11242449844992564 24.99566209022353 1.7303367364243911
lradius 9.273529176098709
lwrist -41.46737442515419
lhand 12.088408883859605 36.72945028383892
lfingers 7.125020000000047
lthumb 37.196314998641725 63.82379857434661
rfemur 183.0925134702136 -219.73697519439776 -192.0634892996154
rtibia 67.37400767338494
rfoot -22.83718302054211 -9.933284702107425
rtoes 49.87661102644861
lfemur -109.45545821265583 35.763469127863495 -24.145709486049697
ltibia 68.10997120161275
lfoot -38.32700656008693 35.574328467192174
ltoes 38.925535696892645
205
root 0 0 0 76.32004852442132 -27.38845905696177 -45.465486937197255
lowerback -11.188609164958729 7.862853432370411 9.572506525352999
upperback -20.51913737969478 10.074134344949758 2.9617679744339167
thorax -15.457885565137694 3.969661735491436 -1.711694709707345
lowerneck -7.5397729374304365 9.771598777629647 5.410409521108901
upperneck 11.711173707451374 11.680410326888508 7.287839242191303
head 4.804726919068099 6.2671071872043 2.076808237021452
rclavicle 6.140523619774789E-15 -3.345554670570304E-15
rhumerus 108.80522723621331 -24.94347873526124 -115.11789964544997
rradius 0.8748948278694471
rwrist 69.58469058656814
rhand 13.696251980661799 -12.578370160961738
rfingers 7.125020000000017
rthumb 38.69342382681146 -38.47494727189725
lclavicle -5.730505622409791E-16 1.5816713204207625E-15
lhumerus -0.43140275238164705 24.83122869217101 1.7159668728885151
lradius 9.35296045205985
lwrist -41.45881182227515
lhand 12.121414321414651 36.763190011424086
lfingers 7.125020000000047
lthumb 37.227468793486004 63.84841280211957
rfemur 183.1045219595813 -219.78162514737522 -192.08482689791117
rtibia 67.33183721648203
rfoot -23.0506873969717 -9.804752452500026
rtoes 49.80845852606841
lfemur -109.4626573334908 35.77358802096895 -24.135097317370683
ltibia 67.97375221467577
lfoot -38.29006920809972 35.607875675992524
ltoes 38.966830745268176
206
root 0 0 0 76.31770952950299 -27.400958907806846 -45.46151232343734
lowerback -11.188313011306539 7.863016526222873 9.57005368201568
upperback -20.517572421244502 10.074217077771523 2.960216402876473
thorax -15.456665238854368 3.969862314488566 -1.7119489957205456
lowerneck -7.542567210048894 9.772166364498391 5.410958216254098
upperneck 11.709508045571999 11.680992937721266 7.288232314096122
head 4.804445501950247 6.267487515504908 2.077039285368783
rclavicle 6.0881094815491535E-15 -3.423071212283315E-15
rhumerus 108.80626775965578 -24.953221098600906 -115.14971893940546
rradius 0.8549174127726928
rwrist 69.59897899404407
rhand 13.692856649762366 -12.579610064262228
rfingers 7.125020000000017
rthumb 38.690601926118255 -38.47780670078583
lclavicle -6.269699566991839E-16 1.5068370621893598E-15
lhumerus -0.24863239982958518 24.87590845215255 1.6850140403251217
lradius 9.330724435248904
lwrist -41.44954063210575
lhand 12.121890828114521 36.758032013932095
lfingers 7.125020000000047
lthumb 37.2279662233456 63.84407370567614
rfemur 183.11357977978582 -219.7688446696963 -192.0841998474661
rtibia 67.35652475983181
rfoot -22.935761033072144 -9.856630644015397
rtoes 49.84241258539271
lfemur -109.45711931573761 35.77062953180172 -24.129091707582777
ltibia 68.01681667917802
lfoot -38.30860928991925 35.591617237039884
ltoes 38.95686969476562
207
root 0 0 0 76.31707319090731 -27.403783275162798 -45.46051470179423
lowerback -11.188133114665803 7.863087837412314 9.569400712517675
upperback -20.517196976505463 10.074271609393847 2.9598293808523044
thorax -15.456444709485261 3.9699323623690352 -1.7119850315954999
lowerneck -7.5432696992246075 9.772330284432554 5.411053010167964
upperneck 11.708735647544366 11.681196694740063 7.288392805996418
head 4.804237635453817 6.267604868383169 2.0771195968908565
rclavicle 6.082011322852889E-15 -3.425459955731762E-15
rhumerus 108.77289772497612 -24.952008550019706 -115.1559942800051
rradius 0.834774384433846
rwrist 69.61610438903992
rhand 13.701987854469799 -12.585179524126433
rfingers 7.125020000000017
rthumb 38.69947297656072 -38.48218485618513
lclavicle -6.526635961466419E-16 1.4992771106963418E-15
lhumerus -0.16444295980964796 24.916740105759747 1.6849308914934156
lradius 9.312141684083418
lwrist -41.45246619781611
lhand 12.1162978951459 36.74969319313228
lfingers 7.125020000000047
lthumb 37.22271613861645 63.83766914099829
rfemur 183.10400025908277 -219.75206685154455 -192.07419674137128
rtibia 67.36612961551734
rfoot -22.87853728424934 -9.89828629521467
rtoes 49.8612343694637
lfemur -109.45413880768396 35.769090759294606 -24.132840555269023
ltibia 68.05194353203882
lfoot -38.31488345314037 35.582865350592684
ltoes 38.94566451593206
